<svg xmlns="http://www.w3.org/2000/svg" width="100" height="100" viewBox="0 0 100 100"><path fill="#005397" d="M38.63 99.995 0 61.375v-22.75L38.63.005h22.75L100 38.625v22.75l-38.62 38.62H38.63z"/><path fill="#FFF" d="M75.331 22.209 28.259 69.281 28.192 29.3l-3.44 3.45v40.048L9.131 57.36V42.678L42.672 9.137h5.558V44.25l3.517-3.507V9.118h5.558l12.918 12.918 2.492-2.482L58.762 5.601H41.225L5.624 41.212v17.537l19.042 19.042L48.24 54.207v36.627h-5.558L29.764 77.915l-2.482 2.482L41.225 94.35h17.547l35.601-35.61V41.202L75.331 22.209zM90.866 57.35 75.331 72.875 55.207 52.75l.077 5.031L72.84 75.347 57.306 90.872h-5.558V50.728l23.575-23.575 15.534 15.525.009 14.672z"/></svg>